<?xml version="1.0" encoding="UTF-8" standalone="no"?>
<svg
   preserveAspectRatio="xMidYMid"
   data-bbox="0 0 201.963 44"
   viewBox="0 0 403.926 217.87679"
   width="1000"
   data-type="color"
   role="presentation"
   aria-hidden="true"
   aria-label=""
   version="1.1"
   id="svg48"
   sodipodi:docname="ShridhanNameLogoTagline.svg"
   height="217.87679"
   inkscape:version="1.4 (86a8ad7, 2024-10-11)"
   xmlns:inkscape="http://www.inkscape.org/namespaces/inkscape"
   xmlns:sodipodi="http://sodipodi.sourceforge.net/DTD/sodipodi-0.dtd"
   xmlns="http://www.w3.org/2000/svg"
   xmlns:svg="http://www.w3.org/2000/svg">
  <defs
     id="defs48" />
  <sodipodi:namedview
     id="namedview48"
     pagecolor="#ffffff"
     bordercolor="#666666"
     borderopacity="1.0"
     inkscape:showpageshadow="2"
     inkscape:pageopacity="0.0"
     inkscape:pagecheckerboard="0"
     inkscape:deskcolor="#d1d1d1"
     inkscape:zoom="0.885"
     inkscape:cx="570.62147"
     inkscape:cy="112.42938"
     inkscape:window-width="1920"
     inkscape:window-height="1027"
     inkscape:window-x="1912"
     inkscape:window-y="-8"
     inkscape:window-maximized="1"
     inkscape:current-layer="svg48" />
  <g
     id="g48"
     transform="matrix(4.9517452,0,0,4.9517452,-298.037,5.9999999e-7)"
     inkscape:export-filename="ShridhanLogoTagline500.png"
     inkscape:export-xdpi="48"
     inkscape:export-ydpi="48">
    <defs
       id="defs1">
      <clipPath
         id="d4b4b9eb-da2c-4531-96c0-e8e8002a8988_comp-kbgakxea_r_comp-liu7a4zw">
        <path
           d="M 201.949,0 V 44 H 0 V 0 Z"
           id="path1" />
      </clipPath>
    </defs>
    <g
       id="g47">
      <g
         id="g46">
        <g
           id="g45">
          <g
             clip-path="url(#d4b4b9eb-da2c-4531-96c0-e8e8002a8988_comp-kbgakxea_r_comp-liu7a4zw)"
             id="g44">
            <path
               fill="#196ba9"
               d="m 45.18,17.271 3.137,-5.2 -1.572,-1.165 -0.837,0.941 c 0,0 -6.483,-4.318 -11.137,1.882 0,0 -3.242,4.375 0.732,7.973 0,0 0.575,1.107 7.478,3.377 0,0 3.451,1.5 1.1,3.378 0,0 -2.143,1.44 -5.7,-1.329 l -3.4,-3.487 -3.451,5.191 c 0,0 3.921,3.723 9.1,3.446 0,0 7.634,-0.388 7.687,-7.917 A 6.183,6.183 0 0 0 44.5,18.88 l -5.492,-2.436 c 0,0 -2.247,-0.941 -0.992,-2.6 0,0 0.992,-2.325 7.164,3.432"
               data-color="1"
               id="path2" />
            <path
               fill="#196ba9"
               d="m 53.65,13.177 h -1.36 v -2.382 h 8.837 v 2.381 h -1.306 l -0.053,4.872 h 5.02 v -4.926 l -1.2,-0.055 0.079,-2.27 h 8.654 v 2.27 l -1.308,0.055 -0.211,16.333 h 1.517 v 2.325 h -8.942 v -2.27 h 1.465 v -8.8 l -5.177,0.056 0.1,8.637 1.255,0.11 0.1,2.27 h -8.829 v -2.218 h 1.412 z"
               data-color="1"
               id="path3" />
            <path
               fill="#196ba9"
               d="m 93.601,29.51 -3.294,-5.869 c 5.439,-2.049 3.975,-7.474 3.975,-7.474 a 7.824,7.824 0 0 0 -7.53,-5.371 h -9.989 v 2.436 h 1.255 l -0.1,16.444 -1.151,0.056 v 2.049 h 8.576 L 85.238,29.4 H 83.983 L 83.93,24.8 h 1.255 c 1.15,1.606 2.667,6.976 2.667,6.976 h 6.955 v -2.27 z M 88.053,18.753 a 3.819,3.819 0 0 1 -4.549,3.654 v -8.969 c 0,0 4.81,-0.609 4.549,5.315"
               data-color="1"
               id="path4" />
            <path
               fill="#196ba9"
               d="m 99.928,12.956 h -1.307 v -2.161 h 8.681 v 2.159 h -1.2 V 29.51 h 1.2 v 2.27 h -8.681 v -2.214 l 1.36,-0.056 z"
               data-color="1"
               id="path5" />
            <path
               fill="#196ba9"
               d="m 129.629,16.995 c -1.464,-5.26 -8,-6.2 -8,-6.2 h -9.935 v 2.491 h 1.517 l -0.026,16.25 -1.49,0.028 v 2.381 l 9.883,-0.166 2.562,-0.609 a 8.549,8.549 0 0 0 4.55,-3.82 12.449,12.449 0 0 0 0.939,-10.355 m -6.226,4.626 c -0.279,9.246 -4.8,7.668 -4.8,7.668 l 0.026,-15.419 c 5.4,-0.868 4.776,7.751 4.776,7.751"
               data-color="1"
               id="path6" />
            <path
               fill="#196ba9"
               d="m 135.573,13.085 h -1.394 v -2.29 h 8.645 v 2.29 h -1.255 l -0.139,5.094 h 5.229 v -4.947 l -1.317,-0.126 -0.112,-2.309 h 8.888 v 2.178 l -1.394,0.036 -0.07,16.462 h 1.464 v 2.307 h -8.854 v -2.27 l 1.564,0.035 -0.17,-8.857 -5.16,0.073 v 8.711 l 1.395,0.074 0.07,2.233 h -8.785 v -2.084 h 1.255 z"
               data-color="1"
               id="path7" />
            <path
               fill="#196ba9"
               d="m 175.559,29.703 -6.24,-18.824 h -5.124 l -6,18.677 -1.395,0.073 v 2.233 h 5.717 v -2.16 h -1.6 l 0.8,-2.952 h 6.589 l 1.08,2.841 h -1.673 l 0.069,2.27 h 8.89 v -2.12 z m -12.794,-6.024 v -0.148 h 0.045 l 2.361,-7.788 2.406,7.641 -4.766,0.147 z"
               data-color="1"
               id="path8" />
            <path
               fill="#196ba9"
               d="m 180.858,29.658 h -1.29 v 2.122 h 5.647 v -2.122 h -1.812 l 0.035,-12.033 9.133,14.155 h 3.212 V 13.158 h 1.394 v -2.51 h -5.3 v 2.362 l 1.5,0.037 v 8.748 l -7.286,-11 h -6.728 v 2.252 l 1.534,0.037 z"
               data-color="1"
               id="path9" />
            <path
               fill="#196ba9"
               d="m 199.808,10.538 a 2.264,2.264 0 0 1 -2.144,-2.362 2.154,2.154 0 1 1 4.289,0 2.264,2.264 0 0 1 -2.144,2.362 m 0,-4.282 a 1.832,1.832 0 0 0 -1.725,1.919 1.735,1.735 0 1 0 3.451,0 1.832,1.832 0 0 0 -1.727,-1.919"
               data-color="1"
               id="path10" />
            <path
               fill="#196ba9"
               d="m 200.086,8.331 a 0.721,0.721 0 0 0 0.378,-0.676 c 0,-0.447 -0.264,-0.674 -0.787,-0.674 h -0.625 v 2.388 h 0.367 V 8.463 h 0.3 l 0.665,0.907 h 0.478 z m 0,-0.69 a 0.632,0.632 0 0 1 -0.049,0.281 0.311,0.311 0 0 1 -0.189,0.148 c -0.033,0.011 -0.058,0.019 -0.077,0.027 h -0.346 V 7.356 h 0.355 c 0.022,0.008 0.052,0.016 0.094,0.027 a 0.249,0.249 0 0 1 0.21,0.259"
               data-color="1"
               id="path11" />
            <path
               fill="#196ba9"
               d="m 115.325,42.255 h -0.836 l -0.58,-1.757 h -2.573 l -0.591,1.757 h -0.8 l 2.161,-6.3 h 1.059 z m -1.666,-2.485 -1.044,-3.087 -1.048,3.088 z"
               data-color="1"
               id="path12" />
            <path
               fill="#196ba9"
               d="m 119.778,42.255 h -0.754 v -0.531 a 2.206,2.206 0 0 1 -1.5,0.659 1.325,1.325 0 0 1 -1.124,-0.52 2.029,2.029 0 0 1 -0.36,-1.259 V 37.53 h 0.754 v 2.693 a 2.508,2.508 0 0 0 0.141,1 0.806,0.806 0 0 0 0.808,0.4 2.122,2.122 0 0 0 1.277,-0.578 V 37.53 h 0.754 z"
               data-color="1"
               id="path13" />
            <path
               fill="#196ba9"
               d="m 123.575,42.209 a 4.46,4.46 0 0 1 -1.059,0.139 1.106,1.106 0 0 1 -0.972,-0.5 2.114,2.114 0 0 1 -0.284,-1.144 v -2.505 h -0.5 v -0.67 h 0.5 v -1.364 h 0.754 v 1.364 h 1.56 v 0.67 h -1.56 v 2.149 a 2.569,2.569 0 0 0 0.109,0.936 0.717,0.717 0 0 0 0.731,0.358 5.262,5.262 0 0 0 0.72,-0.139 z"
               data-color="1"
               id="path14" />
            <path
               fill="#196ba9"
               d="m 128.282,39.897 a 2.822,2.822 0 0 1 -0.513,1.745 1.992,1.992 0 0 1 -3.089,0.012 2.815,2.815 0 0 1 -0.512,-1.757 2.844,2.844 0 0 1 0.512,-1.756 1.963,1.963 0 0 1 3.089,0 2.875,2.875 0 0 1 0.513,1.756 m -0.775,0 q 0,-1.813 -1.277,-1.814 -1.277,-10e-4 -1.287,1.814 0,1.8 1.287,1.8 1.287,0 1.277,-1.8"
               data-color="1"
               id="path15" />
            <path
               fill="#196ba9"
               d="m 135.962,42.255 h -0.754 v -2.692 a 2.769,2.769 0 0 0 -0.119,-0.994 0.759,0.759 0 0 0 -0.775,-0.416 1.849,1.849 0 0 0 -1.266,0.59 4.065,4.065 0 0 1 0.033,0.485 v 3.027 h -0.748 v -2.692 a 2.881,2.881 0 0 0 -0.12,-1.005 0.764,0.764 0 0 0 -0.775,-0.4 1.9,1.9 0 0 0 -1.233,0.578 v 3.519 h -0.753 v -4.727 h 0.753 v 0.52 a 2.18,2.18 0 0 1 1.44,-0.659 1.321,1.321 0 0 1 1.244,0.774 2.529,2.529 0 0 1 1.638,-0.774 1.265,1.265 0 0 1 1.1,0.52 2.112,2.112 0 0 1 0.339,1.271 z"
               data-color="1"
               id="path16" />
            <path
               fill="#196ba9"
               d="m 141.102,42.254 h -0.742 v -0.673 a 2.518,2.518 0 0 1 -1.681,0.67 1.231,1.231 0 0 1 -0.96,-0.464 1.566,1.566 0 0 1 -0.4,-1.058 1.464,1.464 0 0 1 1.08,-1.487 7.609,7.609 0 0 1 1.964,-0.256 v -0.135 a 0.774,0.774 0 0 0 -0.44,-0.77 2.313,2.313 0 0 0 -0.917,-0.139 3.288,3.288 0 0 0 -1.266,0.347 l -0.033,-0.832 a 6.457,6.457 0 0 0 0.764,-0.116 4.237,4.237 0 0 1 0.775,-0.093 q 1.854,0 1.855,1.629 z m -0.742,-1.312 v -1.334 q -1.233,0.1 -1.375,0.14 -0.895,0.223 -0.9,0.936 0,0.82 0.863,0.819 a 1.974,1.974 0 0 0 0.764,-0.129 2.522,2.522 0 0 0 0.644,-0.433"
               data-color="1"
               id="path17" />
            <path
               fill="#196ba9"
               d="m 144.78,42.209 a 4.46,4.46 0 0 1 -1.059,0.139 1.1,1.1 0 0 1 -0.971,-0.5 2.107,2.107 0 0 1 -0.284,-1.144 v -2.505 h -0.5 v -0.67 h 0.5 v -1.364 h 0.754 v 1.364 h 1.56 v 0.67 h -1.56 v 2.149 a 2.569,2.569 0 0 0 0.109,0.936 0.717,0.717 0 0 0 0.731,0.358 5.262,5.262 0 0 0 0.72,-0.139 z"
               data-color="1"
               id="path18" />
            <path
               fill="#196ba9"
               d="m 149.713,39.793 h -3.3 a 1.794,1.794 0 0 0 0.415,1.22 1.386,1.386 0 0 0 1.1,0.48 3.007,3.007 0 0 0 0.873,-0.139 1.854,1.854 0 0 0 0.774,-0.428 h 0.044 v 0.862 a 4.944,4.944 0 0 1 -1.8,0.4 1.944,1.944 0 0 1 -1.577,-0.7 2.681,2.681 0 0 1 -0.584,-1.769 2.725,2.725 0 0 1 0.557,-1.78 1.954,1.954 0 0 1 1.6,-0.728 1.641,1.641 0 0 1 1.528,0.762 3.654,3.654 0 0 1 0.36,1.814 m -0.731,-0.6 a 1.412,1.412 0 0 0 -0.311,-0.959 1.1,1.1 0 0 0 -0.879,-0.358 q -1.168,0 -1.376,1.317 z"
               data-color="1"
               id="path19" />
            <path
               fill="#196ba9"
               d="M 158.868,37.53 156.26,44 h -0.795 l 0.818,-1.97 -1.77,-4.5 h 0.8 l 1.383,3.5 1.389,-3.505 z"
               data-color="1"
               id="path20" />
            <path
               fill="#196ba9"
               d="m 163.647,39.897 a 2.822,2.822 0 0 1 -0.513,1.745 1.992,1.992 0 0 1 -3.089,0.012 2.814,2.814 0 0 1 -0.512,-1.757 2.844,2.844 0 0 1 0.512,-1.756 1.963,1.963 0 0 1 3.089,0 2.875,2.875 0 0 1 0.513,1.756 m -0.775,0 q 0,-1.813 -1.277,-1.814 -1.277,-10e-4 -1.287,1.814 0,1.8 1.287,1.8 1.287,0 1.277,-1.8"
               data-color="1"
               id="path21" />
            <path
               fill="#196ba9"
               d="m 168.526,42.255 h -0.753 v -0.531 a 2.209,2.209 0 0 1 -1.5,0.659 1.324,1.324 0 0 1 -1.124,-0.52 2.024,2.024 0 0 1 -0.361,-1.259 V 37.53 h 0.754 v 2.693 a 2.491,2.491 0 0 0 0.142,1 0.8,0.8 0 0 0 0.808,0.4 2.124,2.124 0 0 0 1.277,-0.578 V 37.53 h 0.753 z"
               data-color="1"
               id="path22" />
            <path
               fill="#196ba9"
               d="m 172.782,38.396 a 3.888,3.888 0 0 0 -0.786,-0.081 2.155,2.155 0 0 0 -1.243,0.59 v 3.351 h -0.754 V 37.53 h 0.754 v 0.693 a 2.052,2.052 0 0 1 1.44,-0.693 3.461,3.461 0 0 1 0.589,0.046 z"
               data-color="1"
               id="path23" />
            <path
               fill="#196ba9"
               d="m 181.251,36.728 h -3.012 v 1.779 h 2.586 v 0.728 h -2.586 v 3.016 h -0.786 v -6.328 h 3.8 z"
               data-color="1"
               id="path24" />
            <path
               fill="#196ba9"
               d="m 183.03,36.73 h -0.851 v -0.821 h 0.851 z m -0.054,5.523 h -0.753 V 37.53 h 0.753 z"
               data-color="1"
               id="path25" />
            <path
               fill="#196ba9"
               d="m 188.497,39.793 h -3.3 a 1.8,1.8 0 0 0 0.415,1.22 1.386,1.386 0 0 0 1.1,0.48 3.007,3.007 0 0 0 0.873,-0.139 1.854,1.854 0 0 0 0.774,-0.428 h 0.044 v 0.862 a 4.945,4.945 0 0 1 -1.8,0.4 1.944,1.944 0 0 1 -1.576,-0.7 2.68,2.68 0 0 1 -0.584,-1.769 2.725,2.725 0 0 1 0.557,-1.78 1.953,1.953 0 0 1 1.6,-0.728 1.641,1.641 0 0 1 1.529,0.762 3.654,3.654 0 0 1 0.36,1.814 m -0.731,-0.6 a 1.412,1.412 0 0 0 -0.311,-0.959 1.1,1.1 0 0 0 -0.879,-0.358 q -1.169,0 -1.376,1.317 z"
               data-color="1"
               id="path26" />
            <path
               fill="#196ba9"
               d="m 190.723,35.668 v 6.587 h -0.753 v -6.587 z"
               data-color="1"
               id="path27" />
            <path
               fill="#196ba9"
               d="m 196.18,42.188 h -0.754 v -0.5 a 2.432,2.432 0 0 1 -1.44,0.624 1.472,1.472 0 0 1 -1.353,-0.8 3.276,3.276 0 0 1 -0.382,-1.664 3.01,3.01 0 0 1 0.48,-1.734 1.737,1.737 0 0 1 1.5,-0.8 2.738,2.738 0 0 1 1.2,0.324 v -2.039 h 0.754 z m -0.754,-1.179 v -2.7 a 2.86,2.86 0 0 0 -1.135,-0.255 1.092,1.092 0 0 0 -0.982,0.579 2.278,2.278 0 0 0 -0.295,1.2 q 0,1.733 1.146,1.733 a 2.158,2.158 0 0 0 1.266,-0.554"
               data-color="1"
               id="path28" />
            <path
               fill="#196ba9"
               d="m 8.628,11.682 v 0.831 h 3.556 v 0.609 H 8.628 v 0.775 h 6.222 v -2.215 z"
               data-color="1"
               id="path29" />
            <path
               fill="#196ba9"
               d="m 8.628,8.803 v 0.831 h 3.556 v 0.609 H 8.628 v 0.775 H 14.85 V 8.803 Z"
               data-color="1"
               id="path30" />
            <path
               fill="#196ba9"
               d="m 8.628,6.035 v 0.831 h 3.556 V 7.479 H 8.628 v 0.77 H 14.85 V 6.035 Z"
               data-color="1"
               id="path31" />
            <path
               fill="#196ba9"
               d="m 8.628,3.156 v 0.831 h 3.556 V 4.596 H 8.628 V 5.371 H 14.85 V 3.156 Z"
               data-color="1"
               id="path32" />
            <path
               fill="#196ba9"
               d="m 8.628,0 v 0.831 h 3.556 V 1.44 H 8.628 V 2.215 H 14.85 V 0 Z"
               data-color="1"
               id="path33" />
            <path
               fill="#196ba9"
               d="m 8.628,26.465 v 0.831 h 3.556 v 0.609 H 8.628 v 0.775 h 6.222 v -2.215 z"
               data-color="1"
               id="path34" />
            <path
               fill="#196ba9"
               d="m 8.628,23.585 v 0.834 h 3.556 v 0.609 H 8.628 v 0.775 h 6.222 v -2.218 z"
               data-color="1"
               id="path35" />
            <path
               fill="#196ba9"
               d="m 8.628,20.818 v 0.831 h 3.556 v 0.609 H 8.628 v 0.776 h 6.222 v -2.216 z"
               data-color="1"
               id="path36" />
            <path
               fill="#196ba9"
               d="m 8.628,17.938 v 0.83 h 3.556 v 0.609 H 8.628 v 0.775 h 6.222 v -2.214 z"
               data-color="1"
               id="path37" />
            <path
               fill="#196ba9"
               d="m 8.628,14.782 v 0.831 h 3.556 v 0.609 H 8.628 v 0.775 h 6.222 v -2.215 z"
               data-color="1"
               id="path38" />
            <path
               fill="#196ba9"
               d="m 8.628,40.915 v 0.831 h 3.556 v 0.609 H 8.628 v 0.775 h 6.222 v -2.215 z"
               data-color="1"
               id="path39" />
            <path
               fill="#196ba9"
               d="m 8.628,38.036 v 0.831 h 3.556 v 0.609 H 8.628 v 0.775 h 6.222 v -2.215 z"
               data-color="1"
               id="path40" />
            <path
               fill="#196ba9"
               d="m 8.628,35.268 v 0.831 h 3.556 v 0.609 H 8.628 v 0.775 h 6.222 v -2.215 z"
               data-color="1"
               id="path41" />
            <path
               fill="#196ba9"
               d="m 8.628,32.384 v 0.831 h 3.556 v 0.609 H 8.628 v 0.775 h 6.222 v -2.215 z"
               data-color="1"
               id="path42" />
            <path
               fill="#196ba9"
               d="m 8.628,29.234 v 0.831 h 3.556 v 0.606 H 8.628 v 0.775 h 6.222 v -2.212 z"
               data-color="1"
               id="path43" />
            <path
               fill="#196ba9"
               d="m 20.672,15.154 h 1.882 v -12 L 20.672,2.898 19.417,4.893 A 12.813,12.813 0 0 0 6.136,3.487 10.7,10.7 0 0 0 1.081,11.017 c 0,0 -0.523,4.8 1.673,7.419 a 20.557,20.557 0 0 0 5.125,3.765 c 0,0 2.649,1.219 4.323,1.919 l 3.556,1.477 a 8.245,8.245 0 0 1 3.591,4.983 7.2,7.2 0 0 1 -1.29,6.2 8.252,8.252 0 0 1 -3.208,2.14 c 0,0 -7.182,0.96 -9.831,-3.912 A 45.76,45.76 0 0 1 1.778,27.57 H 0 L 0.279,40.252 H 2.2 l 1.011,-2.03 c 0,0 5.504,4.765 14.01,1.772 a 11.219,11.219 0 0 0 6.868,-10.151 c 0,0 0.139,-6.607 -5.334,-9.025 0,0 -5.647,-2.381 -6.711,-2.879 A 12.3,12.3 0 0 1 5.926,13.196 c 0,0 -2.056,-5.093 1.569,-7.678 0,0 3.068,-3.1 8.437,0.073 0,0 2.928,1.37 4.741,9.562"
               data-color="1"
               id="path44" />
          </g>
        </g>
      </g>
    </g>
  </g>
</svg>
